<?xml version="1.0" encoding="utf-8"?>
<!-- Generator: Adobe Illustrator 24.3.0, SVG Export Plug-In . SVG Version: 6.00 Build 0)  -->
<svg version="1.1" id="Layer_1" xmlns="http://www.w3.org/2000/svg" xmlns:xlink="http://www.w3.org/1999/xlink" x="0px" y="0px"
	 viewBox="0 0 406 306" style="enable-background:new 0 0 406 306;" xml:space="preserve">
<style type="text/css">
	.st0{fill:#E6E6E6;}
	.st1{fill:#2A8DFF;}
	.st2{fill:#FFD200;}
	.st3{opacity:9.000000e-02;enable-background:new    ;}
	.st4{fill:#24285B;}
	.st5{fill:#FFFFFF;}
	.st6{fill:#F94646;stroke:#F94646;stroke-width:3;stroke-miterlimit:10;}
</style>
<polygon class="st0" points="201.8,255.8 162,255.8 162,252.8 198.7,252.8 198.7,198.7 201.8,198.7 "/>
<path class="st1" d="M280.6,132.1c-0.9,0-1.9,0.1-2.8,0.2c0-0.4,0-0.9,0-1.3c0-21.9-17.7-39.6-39.6-39.6c-0.6,0-1.1,0-1.7,0
	c-0.7-26.1-22.5-46.7-48.6-46c-26.1,0.7-46.7,22.5-46,48.6c0.1,3.1,0.5,6.3,1.2,9.3c-21.8,1.2-38.5,19.9-37.3,41.8
	c1.2,20.7,18.1,36.9,38.8,37.3h136c13.9,0,25.1-11.3,25.1-25.1S294.5,132.1,280.6,132.1L280.6,132.1L280.6,132.1z"/>
<rect x="157.6" y="156.3" class="st2" width="94.4" height="59.5"/>
<rect x="157.6" y="156.3" class="st3" width="94.4" height="59.5"/>
<rect x="149.5" y="131.4" class="st2" width="111" height="29.2"/>
<rect x="162" y="142.1" class="st4" width="66.2" height="6.8"/>
<circle class="st5" cx="242.4" cy="146.5" r="5.5"/>
<rect x="149.5" y="166.5" class="st2" width="111" height="29.2"/>
<rect x="162" y="177.2" class="st4" width="66.2" height="6.8"/>
<circle class="st5" cx="242.4" cy="181.7" r="5.5"/>
<rect x="149.5" y="201.7" class="st2" width="111" height="29.2"/>
<rect x="162" y="212.4" class="st4" width="66.2" height="6.8"/>
<circle class="st5" cx="242.4" cy="216.8" r="5.5"/>
<rect x="139.7" y="252.8" class="st0" width="126.6" height="3"/>
<line class="st6" x1="244.1" y1="247.1" x2="229.5" y2="261.7"/>
<line class="st6" x1="229.5" y1="247.1" x2="244.1" y2="261.7"/>
<line class="st6" x1="170.9" y1="247.1" x2="156.3" y2="261.7"/>
<line class="st6" x1="156.3" y1="247.1" x2="170.9" y2="261.7"/>
</svg>
