<svg xmlns="http://www.w3.org/2000/svg" viewBox="0 0 683.42 131.7"><g id="Layer_2" data-name="Layer 2"><g id="Layer_1-2" data-name="Layer 1"><path d="M45.5,130.69,45.36,104l-13,21.75H26.06l-12.88-21v26H0V80.29H11.74l17.71,29.09L46.73,80.29H58.46l.15,50.4Z"/><path d="M79.74,128.32a25.77,25.77,0,0,1,0-45.65,32.22,32.22,0,0,1,28.73,0,25.77,25.77,0,0,1,0,45.65A30.12,30.12,0,0,1,94.1,131.7,30.11,30.11,0,0,1,79.74,128.32ZM101,118.1a13,13,0,0,0,4.89-5.08,16.63,16.63,0,0,0,0-15A13.07,13.07,0,0,0,101,92.89a14.25,14.25,0,0,0-13.83,0A13,13,0,0,0,82.3,98a16.63,16.63,0,0,0,0,15,12.93,12.93,0,0,0,4.89,5.08,14.25,14.25,0,0,0,13.83,0Z"/><path d="M129.6,80.29h23.83a33.42,33.42,0,0,1,14.69,3.1,23.39,23.39,0,0,1,9.94,8.79,24.74,24.74,0,0,1,3.52,13.31,24.75,24.75,0,0,1-3.52,13.32,23.32,23.32,0,0,1-9.94,8.79,33.42,33.42,0,0,1-14.69,3.09H129.6Zm23.25,39c4.33,0,7.79-1.22,10.41-3.67s3.92-5.84,3.92-10.16-1.31-7.7-3.92-10.15-6.08-3.67-10.41-3.67h-9v27.65Z"/><path d="M229.53,119.68v11H189.07V80.29H228.6v11H203.18v8.5h22.39v10.65H203.18v9.22Z"/><path d="M259.49,117.3h-7.78v13.39H237.45V80.29h23a28.78,28.78,0,0,1,11.88,2.27A17.58,17.58,0,0,1,280.15,89a17.81,17.81,0,0,1,2.74,9.9,17.58,17.58,0,0,1-2.56,9.54,17.23,17.23,0,0,1-7.31,6.37l10.87,15.84H268.63Zm6.76-23.83q-2.22-1.93-6.62-1.94h-7.92v14.76h7.92q4.39,0,6.62-1.91a6.75,6.75,0,0,0,2.24-5.44A6.87,6.87,0,0,0,266.25,93.47Z"/><path d="M338.69,80.29v50.4H327L304.7,103.84v26.85h-14V80.29h11.74l22.25,26.86V80.29Z"/><path d="M382.53,120.9H361.22l-4,9.79H342.72L365,80.29h14l22.32,50.4H386.49Zm-4.17-10.51-6.48-16.13-6.48,16.13Z"/><path d="M460.08,120.9H438.76l-4,9.79H420.26l22.25-50.4h14l22.32,50.4H464Zm-4.18-10.51-6.48-16.13-6.48,16.13Z"/><path d="M482.9,80.29h23.83a33.42,33.42,0,0,1,14.69,3.1,23.3,23.3,0,0,1,9.93,8.79,24.66,24.66,0,0,1,3.53,13.31,24.67,24.67,0,0,1-3.53,13.32,23.24,23.24,0,0,1-9.93,8.79,33.42,33.42,0,0,1-14.69,3.09H482.9Zm23.26,39q6.48,0,10.4-3.67t3.92-10.16q0-6.46-3.92-10.15t-10.4-3.67h-9v27.65Z"/><path d="M587.87,130.69,587.73,104l-13,21.75h-6.33l-12.89-21v26H542.37V80.29h11.74l17.71,29.09L589.1,80.29h11.74l.14,50.4Z"/><path d="M611.06,80.29h14.25v50.4H611.06Z"/><path d="M683.42,80.29v50.4H671.68l-22.25-26.85v26.85h-14V80.29H647.2l22.25,26.86V80.29Z"/><path d="M611.85,60.63S631.49-6.88,683.42.57c0,0-8.36,80.6-64.8,63.67,0,0,7.68-22.58,45.16-44.48C663.78,19.76,641,24.28,611.85,60.63Z"/></g></g></svg>